<svg xmlns="http://www.w3.org/2000/svg" viewBox="0 0 32 32" width="32" height="32" fill="none">
  <path
    d="M10.3 2.3 C7.4 6.3, 7.4 10.9, 10.3 14.9 C13.1 18.9, 13.1 23.4, 10.3 27.4 C8 30.3, 8 30.9, 10.3 30.9"
    stroke="#0D5C40"
    stroke-width="2"
    stroke-linecap="round"
  />
  <path
    d="M21.7 2.3 C24.6 6.3, 24.6 10.9, 21.7 14.9 C18.9 18.9, 18.9 23.4, 21.7 27.4 C24 30.3, 24 30.9, 21.7 30.9"
    stroke="#C8973A"
    stroke-width="2"
    stroke-linecap="round"
  />
  <line x1="10.9" y1="5.7" x2="21.1" y2="5.7" stroke="#E8EDE6" stroke-width="1.4" stroke-linecap="round" />
  <line x1="8.6" y1="11.4" x2="23.4" y2="11.4" stroke="#D5DDD0" stroke-width="1.4" stroke-linecap="round" />
  <line x1="10.9" y1="16" x2="21.1" y2="16" stroke="#E8EDE6" stroke-width="1.4" stroke-linecap="round" />
  <line x1="8.6" y1="20.6" x2="23.4" y2="20.6" stroke="#D5DDD0" stroke-width="1.4" stroke-linecap="round" />
  <line x1="10.9" y1="26.3" x2="21.1" y2="26.3" stroke="#E8EDE6" stroke-width="1.4" stroke-linecap="round" />
</svg>
